<?xml version="1.0" encoding="utf-8"?>
<!-- Generator: Adobe Illustrator 15.1.0, SVG Export Plug-In . SVG Version: 6.00 Build 0)  -->
<!DOCTYPE svg PUBLIC "-//W3C//DTD SVG 1.1//EN" "http://www.w3.org/Graphics/SVG/1.1/DTD/svg11.dtd">
<svg version="1.1" id="Ebene_1" xmlns="http://www.w3.org/2000/svg" xmlns:xlink="http://www.w3.org/1999/xlink" x="0px" y="0px"
	 width="238.334px" height="94.667px" viewBox="0 0 238.334 94.667" enable-background="new 0 0 238.334 94.667"
	 xml:space="preserve">
<g>
	<defs>
		<rect id="SVGID_1_" x="0.375" y="0.375" width="274.709" height="92.896"/>
	</defs>
	<clipPath id="SVGID_2_">
		<use xlink:href="#SVGID_1_"  overflow="visible"/>
	</clipPath>
	<path clip-path="url(#SVGID_2_)" fill="#80B0D0" d="M45.89,74.316c0,0,7.631-2.189,14.116-8.388
		c6.486-6.198,11.316-13.422,11.316-13.422c1.964,1.213,5.051,3.118,8.198,6.034c9.217,8.541,13.311,20.856,2.65,30.486
		c-8.225,7.43-17.566,3.453-22.215,0.469C49.686,82.906,45.89,74.316,45.89,74.316"/>
	<path clip-path="url(#SVGID_2_)" fill="#0061A1" d="M37.121,31.756c0,0,11.936-0.555,24.268,6.471
		c15.753,8.974,22.832,18.704,24.3,22.34c0.329,0.003-4.41-12.976-6.974-25.458c-1.766-8.597-2.439-24.377-6.644-30.226
		c-3.107-4.321-9.633-5.989-16.881-2.981c-7.688,3.191-12.857,10.051-14.985,15.425C37.186,24.951,37.121,31.756,37.121,31.756"/>
	<path clip-path="url(#SVGID_2_)" fill="#F28C00" d="M55.498,89.464c-1.801-0.48-4.324-1.668-6.435-2.4
		c-5.936-2.058-11.021-3.533-21.275-5.393c-9.732-1.765-18.263-4.092-22.404-8.659C-0.72,66.278-1.581,54.956,4.67,46.051
		c5.672-8.081,11.578-11.062,18.423-16.39c8.954-6.971,11.199-9.328,15.477-13.941c1.079-1.164-12.948,13.054-7.468,39.823
		C37.212,85.38,58.934,90.378,55.498,89.464"/>
	<g clip-path="url(#SVGID_2_)">
		<path fill="#0061A1" d="M123.372,68.232h-12.662V25.823h13.268c12.117,0,21.083,5.695,21.083,21.206
			C145.061,61.932,134.276,68.232,123.372,68.232z M123.674,34.063h-4.483v25.93h4.18c8.906,0,12.965-5.21,12.965-12.965
			C136.336,38.364,132.641,34.063,123.674,34.063z"/>
		<path fill="#0061A1" d="M184.742,68.232v-15.57c0-2.302,0.121-7.694,0.121-9.33c-0.605,1.575-1.878,4.604-2.969,7.028
			l-8.603,18.842l-8.603-18.842c-1.091-2.424-2.363-5.453-2.969-7.028c0,1.636,0.121,7.028,0.121,9.33v15.57h-8.301V25.823h8.18
			l8.845,19.205c1.091,2.363,2.362,5.574,2.908,7.089c0.546-1.575,1.757-4.665,2.847-7.089l8.543-19.205h8.361v42.409H184.742z"/>
		<path fill="#0061A1" d="M222.062,68.232h-8.239l-15.086-42.409h9.391l7.998,24.537c0.787,2.362,1.635,5.452,1.998,6.967
			c0.364-1.575,1.152-4.483,1.939-6.967l7.815-24.537h9.269L222.062,68.232z"/>
	</g>
</g>
</svg>
