<svg id="Calque_1" xmlns="http://www.w3.org/2000/svg" viewBox="0 0 205.4 64.9"><style>.st0{fill:#fff}.st1{fill:url(#SVGID_1_)}</style><g id="Group" transform="translate(74.75 39.368)"><path id="Shape" class="st0" d="M-.4 1h6.9v1.8h-5v2.6H6v1.8H1.5v3.9H-.4z"/><path id="Shape_1_" class="st0" d="M9.4 1h1.9v8.4h4.3v1.7H9.4z"/><path id="Shape_2_" class="st0" d="M25.9 11.1L25 9h-4.8l-.9 2.1h-2L21.7 1h2L28 11.1h-2.1zm-5-3.8h3.6l-1.7-4.2-1.9 4.2z"/><path id="Shape_3_" class="st0" d="M37.2 6.1h1.7V10c-.6.3-1.1.7-1.8.9s-1.4.3-2.1.3c-1 0-1.8-.2-2.6-.7-.8-.5-1.5-1-2-1.9-.5-.8-.7-1.6-.7-2.7 0-.9.2-1.9.7-2.7s1.1-1.4 2-1.9 1.7-.7 2.8-.7c.7 0 1.4.1 2.1.3s1.3.6 1.8 1l-1 1.4c-.3-.3-.8-.7-1.3-.8-.5-.2-1-.3-1.5-.3-.6 0-1.1.1-1.7.5s-.9.7-1.3 1.3c-.4.6-.5 1.2-.5 1.7s.1 1.2.5 1.7.7.9 1.3 1.3 1.2.5 1.7.5c.3 0 .7 0 1-.1s.7-.2 1-.5V6.1h-.1z"/><path id="Shape_4_" class="st0" d="M47.2 2.9c-.6-.1-1-.2-1.4-.2-.5 0-.8.1-1 .2-.2.1-.3.5-.3.7s.1.5.2.7c.1.2.5.3.7.5s.6.2 1.1.3c.7.2 1.3.3 1.6.6.5.2.8.5 1.2.9.3.5.5.9.5 1.5s-.1 1.2-.5 1.6c-.3.5-.8.8-1.4 1s-1.3.3-2 .3c-.8 0-1.5-.1-2.3-.5-.7-.3-1.4-.7-2-1.2l.8-1.6c.5.5 1 .8 1.7 1.2.6.2 1.3.3 1.7.3.6 0 .9-.1 1.3-.3.3-.2.5-.5.5-.8 0-.2-.1-.6-.2-.7-.2-.2-.5-.3-.7-.5-.2-.1-.7-.2-1.1-.3-.7-.2-1.3-.3-1.6-.6-.5-.2-.8-.5-1.2-.9-.3-.5-.5-.9-.5-1.5s.1-1 .5-1.5c.3-.5.7-.8 1.3-1s1.3-.3 2-.3 1.3.1 2 .2 1.1.5 1.7.8L49 3.5c-.8-.3-1.2-.5-1.8-.6z"/><path id="Shape_5_" class="st0" d="M52.8 1h2v4.3h4.9V1h2v10.1h-2v-4h-4.9v4h-2z"/><path id="Shape_6_" class="st0" d="M65.6 1h1.9v10.1h-1.9z"/><path id="Shape_7_" class="st0" d="M78.3 2c.7.6 1 1.5 1 2.5 0 1.2-.3 2.1-1 2.7s-1.6.9-2.9.9h-2.2v3h-2V1h4.1c1.4 0 2.4.4 3 1zM77 5.9c.3-.3.6-.8.6-1.4s-.2-1-.6-1.4-.9-.5-1.6-.5h-2.1v3.7h2.1c.7.2 1.2 0 1.6-.4z"/></g><path id="Shape_8_" class="st0" d="M105.3 27c0 2.4-1.7 3.8-3.8 3.8-2.1 0-3.8-1.4-3.8-3.8V14h-2.8v13c0 4.1 2.9 6.5 6.4 6.5 3.7 0 6.6-2.4 6.6-6.5V14h-2.8v13h.2z"/><path id="Shape_9_" class="st0" d="M111.4 33.1h2.9l1.6-4.1h7l1.6 4.1h2.9l-8-19.5-8 19.5zm5.4-6.6l2.5-6.5 2.5 6.5h-5z"/><path id="Shape_10_" class="st0" d="M143.8 25.7L134.1 14h-2.5v19.1h2.5V18.3l12.3 15V14h-2.6z"/><path id="Shape_11_" class="st0" d="M151 16.6h4.6v16.5h2.8V16.6h4.7V14H151z"/><path id="Shape_12_" class="st0" d="M178.1 27c0 2.4-1.7 3.8-3.8 3.8s-3.8-1.4-3.8-3.8V14h-2.8v13c0 4.1 2.9 6.5 6.4 6.5 3.7 0 6.6-2.4 6.6-6.5V14h-2.8v13h.2z"/><path id="Shape_13_" class="st0" d="M201.9 13.7l-6.4 13.6-6.4-13.6-3.6 19.4h2.9l2-10.9 5.1 11.3 5.2-11.3 1.9 10.9h2.8z"/><path id="Shape_14_" class="st0" d="M89.2 33.1c-1 0-2 .9-2 2 0 1 .9 2 2 2 1 0 2-.9 2-2-.1-1.1-.9-2-2-2z"/><path id="Shape_15_" class="st0" d="M80.4 13.7c-5.4 0-9.8 4.4-9.8 9.8s4.4 9.8 9.8 9.8 9.8-4.4 9.8-9.8-4.4-9.8-9.8-9.8zm0 17c-3.8 0-6.9-3.2-6.9-7.2s3.1-7.2 6.9-7.2 6.9 3.2 6.9 7.2-3.1 7.2-6.9 7.2z"/><linearGradient id="SVGID_1_" gradientUnits="userSpaceOnUse" x1="-338.032" y1="6.689" x2="-337.145" y2="7.575" gradientTransform="matrix(59.6965 0 0 64.9348 20189.125 -425.988)"><stop offset="0" stop-color="#ff7e03"/><stop offset="1" stop-color="#ff037a"/></linearGradient><path class="st1" d="M48.7 44.6c6.5-8.2 7.8-19.5 3.3-29S38 .1 27.5 0h-.3c-1 0-2 .1-3 .2C9.9 1.8-.8 14.5 0 29s12.8 26 27.3 26c1 0 2.1-.1 3.1-.2 7.2-.8 13.8-4.4 18.3-10.2zm-3.1-33c2.2 2.5 0 9.1-6 16.3v-.6c.1-5.5-.7-11-2.3-16.3 3.9-1.1 7-.9 8.3.6zm-5.1-4.4c-1.5.1-3 .4-4.4.9-.6-1.4-1.3-2.7-2.2-4 2.3.7 4.6 1.7 6.6 3.1zm-4.1 20.2c0 1.4-.1 2.8-.1 4.1-1 .9-1.9 1.9-3 2.8-3.8 3.4-8.2 6.2-12.9 8.3-.3-.9-.6-1.9-.8-2.9-.9-4-1.4-8.2-1.3-12.3 0-1.4.1-2.8.2-4.1 1-.9 2-1.9 3-2.8 3.8-3.4 8.1-6.2 12.8-8.2 1.4 4.8 2.2 9.9 2.1 15.1zM27.3 3.2c2 0 4.1 2.2 5.8 6-5 2.2-9.7 5.2-13.8 8.9l-.4.4c.4-3 1.2-5.9 2.3-8.6 1.8-4.3 4-6.7 6.1-6.7zM5.5 37.7c-3-6.4-3-13.9-.1-20.4S14 6.1 20.8 4.1c-1 1.4-1.8 2.9-2.4 4.4-1.7 4.2-2.7 8.7-3 13.3-1.8 1.8-3.4 3.7-4.9 5.8-2.4 3-4.1 6.5-5 10.1zm3.6 5.4c-1.9-2.3-.4-7.7 3.9-13.6.6-.9 1.4-1.8 2.1-2.7v.5c0 4.4.4 8.8 1.3 13.1.3 1.2.6 2.2.9 3.2-3.9 1.2-6.9 1.1-8.2-.5zm4.7 4.5c1.6-.1 3.2-.4 4.7-.9.6 1.5 1.4 2.9 2.4 4.2-2.5-.7-4.9-1.8-7.1-3.3zm13.6 4c-2 0-4.1-2.3-5.8-6 5-2.2 9.7-5.2 13.8-8.8l.4-.4c-1.6 9.2-5.2 15.2-8.4 15.2zm6.3-.7c2.9-3.8 4.9-10.2 5.6-18 5.3-5.5 8.8-11.1 9.9-15.7 3 6.5 3 14 .1 20.4-3.1 6.6-8.7 11.4-15.6 13.3zm20-.5c3.7.7 6.3 4.1 5.9 7.9-.4 3.8-3.5 6.6-7.3 6.6-.5 0-.9 0-1.4-.1-2.6-.5-4.7-2.3-5.5-4.8-.9-2.5-.3-5.2 1.4-7.2 1.8-2 4.4-2.9 6.9-2.4zm2.7 8c.2-1.1 0-2.2-.6-3.1-.6-.9-1.5-1.5-2.6-1.7-.3-.1-.5-.1-.8-.1-2 0-3.6 1.4-4 3.3-.4 1.5.1 3 1.2 4.1s2.7 1.3 4.1.8c1.4-.6 2.4-1.8 2.7-3.3z"/></svg>